<svg class="icon" width="22" height="13" viewBox="0 0 22 13" fill="none" xmlns="http://www.w3.org/2000/svg">
<path d="M21.2934 6.69254L13.2099 12.3175C13.0414 12.4348 12.8128 12.5007 12.5744 12.5007C12.3361 12.5007 12.1075 12.4348 11.939 12.3175C11.7704 12.2003 11.6758 12.0412 11.6758 11.8753C11.6758 11.7095 11.7704 11.5504 11.939 11.4332L18.49 6.87535H0.898173C0.659963 6.87535 0.431509 6.8095 0.263069 6.69229C0.0946289 6.57508 0 6.41611 0 6.25035C0 6.08459 0.0946289 5.92562 0.263069 5.80841C0.431509 5.6912 0.659963 5.62535 0.898173 5.62535H18.49L11.939 1.06753C11.7704 0.95026 11.6758 0.7912 11.6758 0.625347C11.6758 0.459495 11.7704 0.300435 11.939 0.18316C12.1075 0.0658846 12.3361 0 12.5744 0C12.8128 0 13.0414 0.0658846 13.2099 0.18316L21.2934 5.80816C21.377 5.86621 21.4432 5.93514 21.4884 6.01101C21.5336 6.08688 21.5569 6.16821 21.5569 6.25035C21.5569 6.33248 21.5336 6.41381 21.4884 6.48969C21.4432 6.56556 21.377 6.63449 21.2934 6.69254Z" />
</svg>
