<svg width="27" height="32" viewBox="0 0 27 32" fill="none" xmlns="http://www.w3.org/2000/svg">
<g clip-path="url(#clip0_152_26)">
<path d="M6.76406 5.50188C5.01094 5.46672 2.98594 5.9425 0.871875 6.87297C0.336563 7.10857 0 7.65438 0 8.23938V25.0019C0 25.5433 0.562031 25.9183 1.05234 25.6886C6.97266 22.9164 11.3555 26.2042 11.543 26.3453C11.6766 26.4484 11.8359 26.5 12 26.5C12.5813 26.5 12.75 25.9666 12.75 25.7509V7.75188C12.75 7.50799 12.6314 7.27938 12.4321 7.13875C12.3422 7.07406 10.1578 5.56328 6.76406 5.50188ZM26.1281 6.87297C24.0136 5.94532 21.9806 5.485 20.2359 5.50141C16.8403 5.56291 14.7 7.07406 14.5687 7.13828C14.3672 7.27938 14.25 7.50766 14.25 7.75188V25.7097C14.25 25.9563 14.4141 26.5 15 26.5C15.1633 26.5 15.3252 26.4473 15.4585 26.344C15.6425 26.2025 20.026 22.9146 25.9491 25.6878C26.4394 25.9173 27.0015 25.5422 27.0015 25.001L27.0015 8.23853C26.9578 7.65485 26.6625 7.10828 26.1281 6.87297Z" fill="#6710D2"/>
</g>
<defs>
<clipPath id="clip0_152_26">
<rect width="27" height="27" fill="white" transform="translate(0 2.5)"/>
</clipPath>
</defs>
</svg>
