<svg class="icon-path-stroke-change" width="20" height="20" viewBox="0 0 20 20" fill="none" xmlns="http://www.w3.org/2000/svg">
<path d="M10 4.16667C10.0027 3.25933 9.51357 2.42177 8.722 1.97828C7.93042 1.53479 6.9607 1.555 6.18829 2.03109C5.41589 2.50718 4.96206 3.3644 5.00254 4.27084C4.01003 4.52603 3.19006 5.22359 2.77908 6.16238C2.3681 7.10116 2.41179 8.17681 2.89754 9.07917C2.04173 9.77443 1.58512 10.8479 1.67785 11.9467C1.77058 13.0454 2.40065 14.0272 3.36088 14.5692C3.20172 15.8006 3.74017 17.0184 4.75812 17.7293C5.77608 18.4402 7.1048 18.5264 8.2061 17.953C9.3074 17.3796 9.99872 16.2416 10 15V4.16667"  stroke-width="1.66667" stroke-linecap="round" stroke-linejoin="round"/>
<path d="M7.49996 10.8333C8.9307 10.33 9.91739 9.01444 9.99996 7.5M5.00246 4.27083C5.01894 4.67394 5.13273 5.06708 5.33413 5.41667M2.89746 9.08C3.04991 8.95584 3.21305 8.84541 3.38496 8.75M4.99996 15C4.42565 15.0003 3.86102 14.8521 3.36079 14.57M9.99996 10.8333H13.3333M9.99996 15H15C15.9204 15 16.6666 15.7462 16.6666 16.6667V17.5M9.99996 6.66667H16.6666M13.3333 6.66667V4.16667C13.3333 3.24619 14.0795 2.5 15 2.5"  stroke-width="1.66667" stroke-linecap="round" stroke-linejoin="round"/>
<path d="M12.9165 10.8334C12.9165 11.0633 13.1032 11.25 13.3332 11.25C13.5631 11.25 13.7498 11.0633 13.7498 10.8334C13.7498 10.6034 13.5631 10.4167 13.3332 10.4167C13.1032 10.4167 12.9165 10.6034 12.9165 10.8334V10.8334"  stroke-width="1.66667" stroke-linecap="round" stroke-linejoin="round"/>
<path d="M14.5835 2.49998C14.5835 2.72994 14.7702 2.91665 15.0002 2.91665C15.2301 2.91665 15.4168 2.72994 15.4168 2.49998C15.4168 2.27002 15.2301 2.08331 15.0002 2.08331C14.7702 2.08331 14.5835 2.27002 14.5835 2.49998V2.49998"  stroke-width="1.66667" stroke-linecap="round" stroke-linejoin="round"/>
<path d="M16.25 17.5C16.25 17.7299 16.4367 17.9166 16.6667 17.9166C16.8966 17.9166 17.0833 17.7299 17.0833 17.5C17.0833 17.27 16.8966 17.0833 16.6667 17.0833C16.4367 17.0833 16.25 17.27 16.25 17.5V17.5"  stroke-width="1.66667" stroke-linecap="round" stroke-linejoin="round"/>
<path d="M16.25 6.66667C16.25 6.89663 16.4367 7.08333 16.6667 7.08333C16.8966 7.08333 17.0833 6.89663 17.0833 6.66667C17.0833 6.4367 16.8966 6.25 16.6667 6.25C16.4367 6.25 16.25 6.4367 16.25 6.66667V6.66667"  stroke-width="1.66667" stroke-linecap="round" stroke-linejoin="round"/>
</svg>
