<svg class="icon icon-check" width="33" height="33" viewBox="0 0 33 33" fill="none" xmlns="http://www.w3.org/2000/svg">
<path d="M28.9484 9.80358L12.8141 25.962C12.7205 26.0559 12.6093 26.1304 12.4868 26.1812C12.3644 26.232 12.2332 26.2582 12.1007 26.2582C11.9682 26.2582 11.837 26.232 11.7145 26.1812C11.5921 26.1304 11.4809 26.0559 11.3873 25.962L4.32853 18.8927C4.13932 18.7032 4.03302 18.4462 4.03302 18.1782C4.03302 17.9102 4.13932 17.6532 4.32853 17.4637C4.51775 17.2742 4.77438 17.1677 5.04197 17.1677C5.30956 17.1677 5.56619 17.2742 5.75541 17.4637L12.1007 23.8197L27.5215 8.37457C27.7107 8.18507 27.9673 8.07861 28.2349 8.07861C28.5025 8.07861 28.7591 8.18507 28.9484 8.37457C29.1376 8.56407 29.2439 8.82108 29.2439 9.08908C29.2439 9.35707 29.1376 9.61408 28.9484 9.80358Z" />
</svg>
