<svg width="21" height="19" viewBox="0 0 21 19" fill="none" xmlns="http://www.w3.org/2000/svg">
<path d="M10.3168 1.71619C8.65896 1.71619 7.03834 2.15234 5.65989 2.9695C4.28144 3.78666 3.20706 4.94812 2.57263 6.30701C1.9382 7.6659 1.77221 9.16118 2.09564 10.6038C2.41907 12.0464 3.2174 13.3715 4.38967 14.4115C5.56195 15.4516 7.05552 16.1598 8.68152 16.4468C10.3075 16.7337 11.9929 16.5865 13.5245 16.0236C15.0562 15.4607 16.3653 14.5075 17.2864 13.2846C18.2074 12.0616 18.699 10.6238 18.699 9.15293C18.6967 7.18122 17.8128 5.29087 16.2413 3.89666C14.6699 2.50245 12.5392 1.71827 10.3168 1.71619ZM14.8303 9.72499H10.3168C10.1458 9.72499 9.9818 9.66472 9.86087 9.55744C9.73995 9.45016 9.67202 9.30465 9.67202 9.15293V5.14853C9.67202 4.99681 9.73995 4.85131 9.86087 4.74402C9.9818 4.63674 10.1458 4.57647 10.3168 4.57647C10.4878 4.57647 10.6518 4.63674 10.7727 4.74402C10.8937 4.85131 10.9616 4.99681 10.9616 5.14853V8.58087H14.8303C15.0013 8.58087 15.1653 8.64114 15.2863 8.74843C15.4072 8.85571 15.4751 9.00121 15.4751 9.15293C15.4751 9.30465 15.4072 9.45016 15.2863 9.55744C15.1653 9.66472 15.0013 9.72499 14.8303 9.72499Z" fill="black"/>
</svg>
