<svg class="icon" width="18" height="17" viewBox="0 0 18 17" fill="none" xmlns="http://www.w3.org/2000/svg">
<path d="M12.798 11.2153C13.4706 10.6595 14.0079 9.96235 14.3703 9.17518C14.7328 8.38802 14.9111 7.5309 14.8922 6.66693C14.8258 3.67718 12.3918 1.21199 9.35818 1.05502C8.57546 1.0131 7.79216 1.12636 7.05479 1.38808C6.31743 1.64979 5.64104 2.05461 5.0658 2.5785C4.49056 3.1024 4.0282 3.73468 3.70617 4.43779C3.38415 5.14091 3.20903 5.90052 3.19122 6.67151L1.69867 9.49579C1.69269 9.50756 1.6867 9.51933 1.68138 9.53111C1.57438 9.77648 1.56675 10.0528 1.66007 10.3035C1.75338 10.5543 1.94058 10.7604 2.18333 10.8798L2.19995 10.887L3.72308 11.5731V13.6047C3.72308 13.8822 3.83515 14.1484 4.03464 14.3446C4.23413 14.5409 4.50469 14.6512 4.78681 14.6512H7.978C8.11905 14.6512 8.25434 14.596 8.35408 14.4979C8.45382 14.3998 8.50986 14.2667 8.50986 14.1279C8.50986 13.9891 8.45382 13.856 8.35408 13.7579C8.25434 13.6598 8.11905 13.6047 7.978 13.6047H4.78681V11.2376C4.78688 11.1373 4.75766 11.0391 4.70262 10.9547C4.64757 10.8702 4.56903 10.8032 4.47633 10.7614L2.65935 9.94186L4.19311 7.04172C4.23309 6.96801 4.25431 6.88587 4.25494 6.80233C4.25479 5.73511 4.6231 4.69948 5.29951 3.86515C5.97593 3.03082 6.92034 2.44726 7.978 2.2101V3.2298C7.62313 3.35323 7.32404 3.59611 7.13359 3.91551C6.94314 4.23492 6.8736 4.61027 6.93724 4.97524C7.00089 5.34021 7.19364 5.67129 7.48141 5.90997C7.76919 6.14865 8.13347 6.27956 8.50986 6.27956C8.88625 6.27956 9.25053 6.14865 9.5383 5.90997C9.82608 5.67129 10.0188 5.34021 10.0825 4.97524C10.1461 4.61027 10.0766 4.23492 9.88613 3.91551C9.69568 3.59611 9.39659 3.35323 9.04172 3.2298V2.09303C9.12815 2.09303 9.21458 2.09302 9.30101 2.09957C10.2442 2.15272 11.1505 2.47828 11.9066 3.03553C12.6627 3.59278 13.235 4.35699 13.5519 5.23256H12.2329C12.1549 5.23253 12.0778 5.24939 12.0072 5.28195C11.9365 5.3145 11.874 5.36195 11.824 5.42093L10.1281 7.42369C9.77435 7.29403 9.38542 7.2916 9.03007 7.41685C8.67471 7.54209 8.37583 7.78694 8.18627 8.10808C7.99672 8.42921 7.92871 8.80596 7.99427 9.17167C8.05983 9.53739 8.25474 9.86851 8.54453 10.1065C8.83432 10.3444 9.2003 10.4739 9.57777 10.472C9.95523 10.4701 10.3198 10.3369 10.6071 10.096C10.8944 9.85515 11.0859 9.52207 11.1476 9.15571C11.2093 8.78935 11.1374 8.41332 10.9445 8.09412L12.4822 6.27907H13.7979C13.8139 6.41512 13.8236 6.55247 13.8272 6.69114C13.8438 7.4406 13.6789 8.18319 13.3462 8.85759C13.0135 9.532 12.5225 10.1189 11.9138 10.5698C11.8388 10.6251 11.78 10.6989 11.7433 10.7838C11.7067 10.8687 11.6934 10.9616 11.705 11.0531L12.2369 15.2392C12.2531 15.3655 12.3156 15.4818 12.4126 15.5661C12.5097 15.6503 12.6346 15.6969 12.7641 15.697C12.7863 15.697 12.8085 15.6957 12.8306 15.6931C12.8999 15.6846 12.9669 15.6628 13.0276 15.6288C13.0884 15.5949 13.1417 15.5495 13.1846 15.4952C13.2275 15.441 13.2591 15.379 13.2777 15.3127C13.2962 15.2464 13.3013 15.1772 13.2927 15.109L12.798 11.2153ZM8.50986 5.23256C8.40467 5.23256 8.30184 5.20187 8.21437 5.14438C8.12691 5.08688 8.05874 5.00516 8.01848 4.90955C7.97823 4.81393 7.96769 4.70872 7.98821 4.60722C8.00874 4.50572 8.05939 4.41249 8.13377 4.33931C8.20816 4.26613 8.30293 4.21629 8.4061 4.1961C8.50927 4.17591 8.61621 4.18628 8.7134 4.22588C8.81058 4.26548 8.89365 4.33255 8.95209 4.4186C9.01053 4.50465 9.04172 4.60581 9.04172 4.7093C9.04172 4.84808 8.98569 4.98117 8.88594 5.0793C8.7862 5.17743 8.65092 5.23256 8.50986 5.23256ZM9.57359 9.41861C9.4684 9.41861 9.36556 9.38792 9.2781 9.33042C9.19064 9.27293 9.12247 9.1912 9.08221 9.09559C9.04195 8.99998 9.03142 8.89477 9.05194 8.79327C9.07247 8.69177 9.12312 8.59853 9.1975 8.52535C9.27189 8.45217 9.36665 8.40234 9.46983 8.38215C9.573 8.36196 9.67994 8.37232 9.77712 8.41193C9.87431 8.45153 9.95738 8.5186 10.0158 8.60465C10.0743 8.69069 10.1055 8.79186 10.1055 8.89535C10.1055 9.03413 10.0494 9.16722 9.94967 9.26535C9.84993 9.36348 9.71465 9.41861 9.57359 9.41861Z" />
</svg>
