<svg width="33" height="32" viewBox="0 0 33 32" fill="none" xmlns="http://www.w3.org/2000/svg">
<path d="M26.6189 24.57L17.5926 16L26.6189 7.43C26.6241 7.42427 26.6295 7.41885 26.6353 7.41375C26.9172 7.13405 27.1091 6.77777 27.1868 6.38993C27.2646 6.00209 27.2246 5.6001 27.0721 5.23476C26.9195 4.86942 26.6612 4.55713 26.3297 4.33736C25.9982 4.11758 25.6084 4.00018 25.2097 4H7.05869C6.65995 4.00018 6.2702 4.11758 5.93872 4.33736C5.60723 4.55713 5.34888 4.86942 5.19631 5.23476C5.04375 5.6001 5.00381 6.00209 5.08155 6.38993C5.15929 6.77777 5.35122 7.13405 5.63308 7.41375C5.63885 7.41885 5.64433 7.42427 5.64947 7.43L14.6758 16L5.64947 24.57C5.64433 24.5757 5.63885 24.5812 5.63308 24.5863C5.35122 24.866 5.15929 25.2222 5.08155 25.6101C5.00381 25.9979 5.04375 26.3999 5.19631 26.7652C5.34888 27.1306 5.60723 27.4429 5.93872 27.6626C6.2702 27.8824 6.65995 27.9998 7.05869 28H25.2097C25.6086 28.0001 25.9985 27.8828 26.3302 27.6632C26.6618 27.4435 26.9204 27.1312 27.0731 26.7658C27.2258 26.4004 27.2659 25.9983 27.1882 25.6104C27.1105 25.2224 26.9185 24.866 26.6366 24.5863C26.6304 24.5812 26.6245 24.5758 26.6189 24.57ZM19.9421 21H12.3263L16.1342 17.385L19.9421 21ZM25.2097 6L16.1342 14.615L7.05869 6H25.2097Z" fill="black"/>
</svg>
