<svg width="26" height="24" viewBox="0 0 26 24" fill="none" xmlns="http://www.w3.org/2000/svg">
<path d="M21.3502 3.75H3.95381C3.53437 3.75 3.13211 3.90804 2.83552 4.18934C2.53894 4.47064 2.37231 4.85218 2.37231 5.25V18.75C2.37231 19.1478 2.53894 19.5294 2.83552 19.8107C3.13211 20.092 3.53437 20.25 3.95381 20.25H21.3502C21.7697 20.25 22.1719 20.092 22.4685 19.8107C22.7651 19.5294 22.9317 19.1478 22.9317 18.75V5.25C22.9317 4.85218 22.7651 4.47064 22.4685 4.18934C22.1719 3.90804 21.7697 3.75 21.3502 3.75ZM21.3502 5.25V14.8828L18.7734 12.4397C18.6265 12.3004 18.4522 12.1898 18.2603 12.1144C18.0684 12.039 17.8627 12.0002 17.655 12.0002C17.4473 12.0002 17.2416 12.039 17.0497 12.1144C16.8578 12.1898 16.6834 12.3004 16.5366 12.4397L14.5597 14.3147L10.2106 10.1897C9.91404 9.9086 9.51193 9.7507 9.09268 9.7507C8.67342 9.7507 8.27132 9.9086 7.97476 10.1897L3.95381 14.0034V5.25H21.3502ZM3.95381 16.125L9.09366 11.25L17.0011 18.75H3.95381V16.125ZM21.3502 18.75H19.238L15.6796 15.375L17.6565 13.5L21.3502 17.0044V18.75ZM14.2335 9.375C14.2335 9.1525 14.3031 8.93499 14.4334 8.74998C14.5638 8.56498 14.749 8.42078 14.9657 8.33564C15.1825 8.25049 15.421 8.22821 15.651 8.27162C15.8811 8.31502 16.0925 8.42217 16.2584 8.5795C16.4242 8.73684 16.5372 8.93729 16.583 9.15552C16.6287 9.37375 16.6052 9.59995 16.5155 9.80552C16.4257 10.0111 16.2737 10.1868 16.0786 10.3104C15.8836 10.434 15.6542 10.5 15.4196 10.5C15.1051 10.5 14.8034 10.3815 14.5809 10.1705C14.3585 9.95952 14.2335 9.67337 14.2335 9.375Z" />
</svg>
