<svg width="18" height="16" viewBox="0 0 18 16" fill="none" xmlns="http://www.w3.org/2000/svg">
<path class="icon" d="M15.4179 1.51267C15.0686 1.18455 14.5949 1.00021 14.1011 1.00021C13.6072 1.00021 13.1335 1.18455 12.7842 1.51267L11.9634 2.28401L14.597 4.75867L15.4179 3.98734C15.7671 3.65916 15.9633 3.21408 15.9633 2.75001C15.9633 2.28593 15.7671 1.84085 15.4179 1.51267ZM13.8442 5.46601L11.2106 2.99134L2.59026 11.0913C2.1524 11.5026 1.83052 12.0099 1.65373 12.5673L1.08614 14.3573C1.05874 14.4437 1.05669 14.5355 1.08022 14.6228C1.10376 14.7102 1.15199 14.79 1.21982 14.8537C1.28765 14.9175 1.37255 14.9628 1.46555 14.9849C1.55854 15.007 1.65617 15.0051 1.7481 14.9793L3.65308 14.446C4.24638 14.2799 4.78625 13.9774 5.2239 13.566L13.8442 5.46601Z" />
</svg>
