<svg width="32" height="32" viewBox="0 0 32 32" fill="none" xmlns="http://www.w3.org/2000/svg">
<path d="M21 14C21 15.3845 20.5894 16.7379 19.8203 17.889C19.0511 19.0401 17.9578 19.9373 16.6788 20.4672C15.3997 20.997 13.9922 21.1356 12.6343 20.8655C11.2765 20.5954 10.0292 19.9287 9.05023 18.9497C8.07126 17.9708 7.40458 16.7235 7.13448 15.3656C6.86438 14.0078 7.00301 12.6003 7.53282 11.3212C8.06263 10.0421 8.95984 8.94888 10.111 8.17971C11.2621 7.41054 12.6155 7 14 7C15.8565 7 17.637 7.7375 18.9497 9.05025C20.2625 10.363 21 12.1435 21 14ZM28.7075 28.7075C28.6146 28.8005 28.5043 28.8742 28.3829 28.9246C28.2615 28.9749 28.1314 29.0008 28 29.0008C27.8686 29.0008 27.7384 28.9749 27.617 28.9246C27.4956 28.8742 27.3853 28.8005 27.2925 28.7075L21.035 22.4488C18.8589 24.2591 16.0686 25.1609 13.2446 24.9665C10.4205 24.7721 7.78012 23.4965 5.87259 21.4051C3.96505 19.3136 2.93723 16.5672 3.0029 13.7373C3.06858 10.9073 4.2227 8.21162 6.22521 6.21088C8.22771 4.21015 10.9244 3.05841 13.7544 2.99524C16.5845 2.93206 19.3299 3.96231 21.4197 5.8717C23.5095 7.78108 24.7827 10.4226 24.9746 13.2468C25.1665 16.071 24.2623 18.8605 22.45 21.035L28.7075 27.2925C28.8005 27.3854 28.8742 27.4957 28.9245 27.6171C28.9749 27.7385 29.0008 27.8686 29.0008 28C29.0008 28.1314 28.9749 28.2615 28.9245 28.3829C28.8742 28.5043 28.8005 28.6146 28.7075 28.7075ZM14 23C15.78 23 17.5201 22.4722 19.0001 21.4832C20.4802 20.4943 21.6337 19.0887 22.3149 17.4442C22.9961 15.7996 23.1743 13.99 22.827 12.2442C22.4798 10.4984 21.6226 8.89471 20.3639 7.63604C19.1053 6.37737 17.5016 5.5202 15.7558 5.17293C14.01 4.82567 12.2004 5.0039 10.5558 5.68509C8.91129 6.36628 7.50568 7.51983 6.51675 8.99987C5.52782 10.4799 4.99998 12.22 4.99998 14C5.00262 16.3861 5.95169 18.6738 7.63894 20.361C9.32619 22.0483 11.6138 22.9974 14 23Z" />
</svg>
