<svg class="icon" width="17" height="17" viewBox="0 0 17 17" fill="none" xmlns="http://www.w3.org/2000/svg">
<g clip-path="url(#clip0_1026_329)">
<path d="M8.49878 4.6003C7.72773 4.6003 6.974 4.82894 6.3329 5.25731C5.6918 5.68568 5.19212 6.29454 4.89705 7.0069C4.60199 7.71925 4.52478 8.50311 4.67521 9.25934C4.82563 10.0156 5.19693 10.7102 5.74214 11.2554C6.28735 11.8006 6.98199 12.1719 7.73823 12.3224C8.49446 12.4728 9.27831 12.3956 9.99067 12.1005C10.703 11.8054 11.3119 11.3058 11.7403 10.6647C12.1686 10.0236 12.3973 9.26983 12.3973 8.49878C12.3962 7.46517 11.9851 6.4742 11.2542 5.74333C10.5234 5.01245 9.53239 4.60137 8.49878 4.6003ZM8.49878 11.0978C7.98475 11.0978 7.48226 10.9453 7.05486 10.6598C6.62746 10.3742 6.29434 9.96828 6.09763 9.49337C5.90092 9.01847 5.84945 8.4959 5.94973 7.99174C6.05001 7.48759 6.29754 7.02449 6.66102 6.66102C7.02449 6.29754 7.48759 6.05001 7.99174 5.94973C8.4959 5.84945 9.01847 5.90092 9.49337 6.09763C9.96828 6.29434 10.3742 6.62746 10.6598 7.05486C10.9453 7.48226 11.0978 7.98475 11.0978 8.49878C11.0978 9.18808 10.8239 9.84914 10.3365 10.3365C9.84914 10.8239 9.18808 11.0978 8.49878 11.0978ZM15.646 8.67421C15.6493 8.55726 15.6493 8.4403 15.646 8.32335L16.8578 6.80944C16.9213 6.72995 16.9653 6.63665 16.9862 6.53706C17.0071 6.43746 17.0042 6.33435 16.978 6.23604C16.7793 5.48932 16.4822 4.77236 16.0943 4.10405C16.0435 4.0166 15.973 3.9422 15.8884 3.88679C15.8038 3.83137 15.7075 3.79647 15.607 3.78487L13.6805 3.57045C13.6004 3.48598 13.5192 3.40476 13.4369 3.32679L13.2094 1.39542C13.1978 1.29488 13.1627 1.19847 13.1072 1.11386C13.0516 1.02925 12.9771 0.958799 12.8894 0.90811C12.2209 0.52098 11.504 0.224116 10.7575 0.0252655C10.6591 -0.000889288 10.5559 -0.00356439 10.4563 0.0174558C10.3567 0.038476 10.2635 0.0826034 10.1841 0.146281L8.67421 1.35156C8.55726 1.35156 8.4403 1.35156 8.32335 1.35156L6.80944 0.14222C6.72995 0.0786816 6.63665 0.0347014 6.53706 0.0138228C6.43746 -0.00705577 6.33435 -0.00424917 6.23604 0.0220167C5.48944 0.221024 4.77253 0.518166 4.10405 0.905673C4.0166 0.956456 3.9422 1.02695 3.88679 1.11155C3.83137 1.19615 3.79647 1.29252 3.78487 1.39298L3.57045 3.32273C3.48598 3.40341 3.40476 3.48463 3.32679 3.56639L1.39542 3.78811C1.29488 3.79981 1.19847 3.83483 1.11386 3.89039C1.02925 3.94595 0.958799 4.02051 0.90811 4.10812C0.52098 4.77668 0.224116 5.49357 0.0252655 6.2401C-0.000889288 6.33847 -0.00356439 6.44162 0.0174558 6.54122C0.038476 6.64082 0.0826034 6.73408 0.146281 6.8135L1.35156 8.32335C1.35156 8.4403 1.35156 8.55726 1.35156 8.67421L0.14222 10.1881C0.0786816 10.2676 0.0347014 10.3609 0.0138228 10.4605C-0.00705577 10.5601 -0.00424917 10.6632 0.0220167 10.7615C0.220668 11.5082 0.51783 12.2252 0.905673 12.8935C0.956456 12.981 1.02695 13.0554 1.11155 13.1108C1.19615 13.1662 1.29252 13.2011 1.39298 13.2127L3.31948 13.4271C3.40016 13.5116 3.48138 13.5928 3.56314 13.6708L3.78811 15.6021C3.79981 15.7027 3.83483 15.7991 3.89039 15.8837C3.94595 15.9683 4.02051 16.0388 4.10812 16.0895C4.77668 16.4766 5.49357 16.7734 6.2401 16.9723C6.33847 16.9985 6.44162 17.0011 6.54122 16.9801C6.64082 16.9591 6.73408 16.915 6.8135 16.8513L8.32335 15.646C8.4403 15.6493 8.55726 15.6493 8.67421 15.646L10.1881 16.8578C10.2676 16.9213 10.3609 16.9653 10.4605 16.9862C10.5601 17.0071 10.6632 17.0042 10.7615 16.978C11.5082 16.7793 12.2252 16.4822 12.8935 16.0943C12.981 16.0435 13.0554 15.973 13.1108 15.8884C13.1662 15.8038 13.2011 15.7075 13.2127 15.607L13.4271 13.6805C13.5116 13.6004 13.5928 13.5192 13.6708 13.4369L15.6021 13.2094C15.7027 13.1978 15.7991 13.1627 15.8837 13.1072C15.9683 13.0516 16.0388 12.9771 16.0895 12.8894C16.4766 12.2209 16.7734 11.504 16.9723 10.7575C16.9985 10.6591 17.0011 10.5559 16.9801 10.4563C16.9591 10.3567 16.915 10.2635 16.8513 10.1841L15.646 8.67421ZM14.3384 8.14629C14.3522 8.38108 14.3522 8.61648 14.3384 8.85127C14.3287 9.01202 14.3791 9.17063 14.4797 9.29635L15.6322 10.7363C15.5 11.1566 15.3306 11.5643 15.1262 11.9546L13.2907 12.1625C13.1308 12.1803 12.9832 12.2567 12.8765 12.377C12.7201 12.5528 12.5536 12.7193 12.3778 12.8756C12.2575 12.9824 12.1811 13.13 12.1634 13.2899L11.9595 15.1238C11.5692 15.3283 11.1615 15.4976 10.7412 15.6298L9.30041 14.4773C9.18511 14.3851 9.04189 14.335 8.89432 14.3351H8.85533C8.62054 14.3489 8.38514 14.3489 8.15036 14.3351C7.98961 14.3255 7.831 14.3758 7.70528 14.4765L6.26121 15.6298C5.84094 15.4975 5.43324 15.3282 5.04294 15.1238L4.83502 13.2907C4.81728 13.1308 4.74088 12.9832 4.6206 12.8765C4.44477 12.7201 4.27826 12.5536 4.12192 12.3778C4.01515 12.2575 3.86756 12.1811 3.70771 12.1634L1.8738 11.9587C1.66928 11.5684 1.49995 11.1607 1.36781 10.7404L2.52029 9.2996C2.62093 9.17388 2.67129 9.01526 2.66162 8.85452C2.64781 8.61973 2.64781 8.38433 2.66162 8.14954C2.67129 7.9888 2.62093 7.83019 2.52029 7.70447L1.36781 6.26121C1.50005 5.84094 1.66938 5.43324 1.8738 5.04294L3.7069 4.83502C3.86675 4.81728 4.01433 4.74088 4.12111 4.6206C4.27745 4.44477 4.44396 4.27826 4.61979 4.12192C4.74054 4.01508 4.81726 3.86715 4.83502 3.7069L5.03888 1.8738C5.42913 1.66928 5.83684 1.49995 6.25715 1.36781L7.69797 2.52029C7.82369 2.62093 7.9823 2.67129 8.14305 2.66162C8.37783 2.64781 8.61323 2.64781 8.84802 2.66162C9.00877 2.67129 9.16738 2.62093 9.2931 2.52029L10.7363 1.36781C11.1566 1.50005 11.5643 1.66938 11.9546 1.8738L12.1625 3.7069C12.1803 3.86675 12.2567 4.01433 12.377 4.12111C12.5528 4.27745 12.7193 4.44396 12.8756 4.61979C12.9824 4.74006 13.13 4.81646 13.2899 4.83421L15.1238 5.03807C15.3283 5.42832 15.4976 5.83603 15.6298 6.25634L14.4773 7.69716C14.3757 7.82394 14.3252 7.98418 14.3359 8.14629H14.3384Z" />
</g>
<defs>
<clipPath id="clip0_1026_329">
<rect width="17" height="17" fill="white"/>
</clipPath>
</defs>
</svg>
