<svg width="15" height="18" viewBox="0 0 15 18" fill="none" xmlns="http://www.w3.org/2000/svg">
<path d="M5.62319 5.89286H4.68602C4.31319 5.89286 3.95564 6.06218 3.69201 6.36358C3.42838 6.66498 3.28027 7.07376 3.28027 7.5V13.9286C3.28027 14.3548 3.42838 14.7636 3.69201 15.065C3.95564 15.3664 4.31319 15.5357 4.68602 15.5357H10.309C10.6818 15.5357 11.0394 15.3664 11.303 15.065C11.5667 14.7636 11.7148 14.3548 11.7148 13.9286V7.5C11.7148 7.07376 11.5667 6.66498 11.303 6.36358C11.0394 6.06218 10.6818 5.89286 10.309 5.89286H9.37184M9.37184 3.75L7.49752 1.60715M7.49752 1.60715L5.62319 3.75M7.49752 1.60715V10.7143" stroke="black" stroke-width="1.5" stroke-linecap="round" stroke-linejoin="round"/>
</svg>
