<svg class="icon-path-fill-change" width="21" height="19" viewBox="0 0 21 19" fill="none" xmlns="http://www.w3.org/2000/svg">
<path d="M18.8832 8.2126L15.2562 10.9892L16.3612 15.1416C16.4222 15.3671 16.4065 15.6034 16.3161 15.8209C16.2257 16.0385 16.0647 16.2273 15.8534 16.3637C15.6421 16.5 15.39 16.5778 15.1289 16.5871C14.8679 16.5963 14.6095 16.5368 14.3866 16.4159L10.3164 14.1935L6.24373 16.4159C6.02082 16.5361 5.7628 16.5951 5.50217 16.5854C5.24155 16.5758 4.98996 16.498 4.7791 16.3617C4.56823 16.2255 4.40752 16.0369 4.31719 15.8198C4.22686 15.6027 4.21096 15.3668 4.27149 15.1416L5.38052 10.9892L1.75359 8.2126C1.55637 8.06137 1.41373 7.86194 1.34349 7.63921C1.27326 7.41649 1.27854 7.18035 1.35867 6.96027C1.43881 6.74019 1.59025 6.54594 1.79408 6.40176C1.99791 6.25759 2.24509 6.16989 2.50477 6.14961L7.26008 5.80924L9.09449 1.87063C9.19379 1.65597 9.36278 1.47237 9.58 1.34315C9.79721 1.21392 10.0528 1.14493 10.3144 1.14493C10.5759 1.14493 10.8315 1.21392 11.0487 1.34315C11.2659 1.47237 11.4349 1.65597 11.5342 1.87063L13.3678 5.80924L18.1231 6.14961C18.3833 6.16914 18.6312 6.25635 18.8358 6.40032C19.0404 6.5443 19.1925 6.73863 19.2731 6.95897C19.3538 7.17932 19.3593 7.41587 19.2891 7.639C19.2189 7.86213 19.076 8.06191 18.8783 8.21331L18.8832 8.2126Z" />
</svg>
