<svg class="icon-path-stroke-change" width="18" height="16" viewBox="0 0 18 16" fill="none" xmlns="http://www.w3.org/2000/svg">
<path d="M10.458 6.00001L10.2125 12M6.81543 12L6.56995 6.00001M13.6422 3.86001C13.8848 3.89468 14.126 3.93135 14.3673 3.97068M13.6422 3.86001L12.8844 13.1153C12.8535 13.4922 12.6723 13.8441 12.3772 14.1008C12.082 14.3576 11.6945 14.5001 11.2923 14.5H5.73558C5.33337 14.5001 4.94593 14.3576 4.65075 14.1008C4.35558 13.8441 4.17441 13.4922 4.14348 13.1153L3.38575 3.86001M13.6422 3.86001C12.8233 3.74369 12.0002 3.65541 11.1745 3.59535M3.38575 3.86001C3.1431 3.89401 2.90187 3.93068 2.66064 3.97001M3.38575 3.86001C4.20459 3.74369 5.02768 3.65541 5.85336 3.59535M11.1745 3.59535V2.98468C11.1745 2.19801 10.5289 1.54201 9.69171 1.51735C8.90674 1.49377 8.12117 1.49377 7.3362 1.51735C6.499 1.54201 5.85336 2.19868 5.85336 2.98468V3.59535M11.1745 3.59535C9.40346 3.46673 7.62445 3.46673 5.85336 3.59535" stroke-width="1.5" stroke-linecap="round" stroke-linejoin="round"/>
</svg>
