<svg width="32" height="32" viewBox="0 0 32 32" fill="none" xmlns="http://www.w3.org/2000/svg">
<path d="M30 7V15C30.0002 15.1979 29.9416 15.3914 29.8317 15.556C29.7219 15.7206 29.5656 15.8489 29.3828 15.9246C29.2 16.0004 28.9988 16.0202 28.8047 15.9815C28.6106 15.9429 28.4324 15.8475 28.2925 15.7075L25 12.4138L17.7075 19.7075C17.6146 19.8005 17.5043 19.8742 17.3829 19.9246C17.2615 19.9749 17.1314 20.0008 17 20.0008C16.8686 20.0008 16.7385 19.9749 16.6171 19.9246C16.4957 19.8742 16.3854 19.8005 16.2925 19.7075L12 15.4137L3.70751 23.7075C3.51987 23.8951 3.26537 24.0006 3.00001 24.0006C2.73464 24.0006 2.48015 23.8951 2.29251 23.7075C2.10487 23.5199 1.99945 23.2654 1.99945 23C1.99945 22.7346 2.10487 22.4801 2.29251 22.2925L11.2925 13.2925C11.3854 13.1995 11.4957 13.1258 11.6171 13.0754C11.7385 13.0251 11.8686 12.9992 12 12.9992C12.1314 12.9992 12.2615 13.0251 12.3829 13.0754C12.5043 13.1258 12.6146 13.1995 12.7075 13.2925L17 17.5863L23.5863 11L20.2925 7.7075C20.1525 7.56764 20.0571 7.38939 20.0185 7.19531C19.9798 7.00122 19.9996 6.80003 20.0754 6.61721C20.1511 6.43439 20.2794 6.27815 20.444 6.16828C20.6086 6.05841 20.8021 5.99984 21 6H29C29.2652 6 29.5196 6.10536 29.7071 6.29289C29.8947 6.48043 30 6.73478 30 7Z" fill="black"/>
</svg>
